<svg width="13" height="12" viewBox="0 0 13 12" fill="none" xmlns="http://www.w3.org/2000/svg">
<path d="M6.5 12C6.29929 11.9997 6.1033 11.9391 5.93753 11.8259C3.48172 10.1587 2.41834 9.01563 1.83181 8.30094C0.581878 6.7775 -0.0165271 5.21344 0.000346987 3.51969C0.0200334 1.57875 1.57714 0 3.47141 0C4.84884 0 5.80285 0.775938 6.35845 1.42219C6.37605 1.44245 6.39779 1.4587 6.42221 1.46984C6.44663 1.48098 6.47316 1.48674 6.5 1.48674C6.52684 1.48674 6.55337 1.48098 6.57779 1.46984C6.60221 1.4587 6.62396 1.44245 6.64156 1.42219C7.19715 0.775313 8.15116 0 9.52859 0C11.4229 0 12.98 1.57875 12.9997 3.52C13.0165 5.21406 12.4175 6.77813 11.1682 8.30125C10.5817 9.01594 9.51828 10.1591 7.06247 11.8263C6.89666 11.9393 6.70068 11.9998 6.5 12Z" fill="black"/>
<path d="M6.5 12C6.29929 11.9997 6.1033 11.9391 5.93753 11.8259C3.48172 10.1587 2.41834 9.01563 1.83181 8.30094C0.581878 6.7775 -0.0165271 5.21344 0.000346987 3.51969C0.0200334 1.57875 1.57714 0 3.47141 0C4.84884 0 5.80285 0.775938 6.35845 1.42219C6.37605 1.44245 6.39779 1.4587 6.42221 1.46984C6.44663 1.48098 6.47316 1.48674 6.5 1.48674C6.52684 1.48674 6.55337 1.48098 6.57779 1.46984C6.60221 1.4587 6.62396 1.44245 6.64156 1.42219C7.19715 0.775313 8.15116 0 9.52859 0C11.4229 0 12.98 1.57875 12.9997 3.52C13.0165 5.21406 12.4175 6.77813 11.1682 8.30125C10.5817 9.01594 9.51828 10.1591 7.06247 11.8263C6.89666 11.9393 6.70068 11.9998 6.5 12Z" fill="white"/>
</svg>
