<svg width="77" height="82" viewBox="0 0 77 82" fill="none" xmlns="http://www.w3.org/2000/svg">
<g clip-path="url(#clip0_915_27)">
<path d="M35 10C35 29.2686 19.3617 44.9069 0 44.9069C19.3617 44.9069 35 60.5452 35 79.8138C35 60.5452 50.6383 44.9069 70 44.9069C50.6383 44.9069 35 29.2686 35 10ZM35 63.8032C31.1835 55.4255 24.3883 48.7234 16.0106 44.9069C24.3883 41.0904 31.0904 34.2952 35 26.0106C38.8165 34.3883 45.6117 41.0904 53.9894 44.9069C45.6117 48.7234 38.8165 55.5186 35 63.8032Z" fill="white"/>
</g>
<g clip-path="url(#clip1_915_27)">
<path d="M59.544 49C59.544 58.108 52.152 65.5 43 65.5C52.152 65.5 59.544 72.892 59.544 82C59.544 72.892 66.936 65.5 76.088 65.5C66.936 65.5 59.544 58.108 59.544 49ZM59.544 74.432C57.74 70.472 54.528 67.304 50.568 65.5C54.528 63.696 57.696 60.484 59.544 56.568C61.348 60.528 64.56 63.696 68.52 65.5C64.56 67.304 61.348 70.516 59.544 74.432Z" fill="white"/>
</g>
<defs>
<clipPath id="clip0_915_27">
<rect width="70" height="69.8138" fill="white"/>
</clipPath>
<clipPath id="clip1_915_27">
<rect width="33.088" height="33" fill="white" transform="translate(43 49)"/>
</clipPath>
</defs>
</svg>
